<?xml version="1.0" encoding="UTF-8"?>
<svg xmlns="http://www.w3.org/2000/svg" viewBox="0 0 64 64" width="512" height="512"><g id="outline"><rect x="31" y="32" width="2" height="2"/><path d="M62,36.979A2.982,2.982,0,0,0,59.021,34H57a21.09,21.09,0,0,1-10.632-2.492A20.943,20.943,0,0,0,37,29.018V28H35V26h5a2.987,2.987,0,0,0,2.22-5,2.954,2.954,0,0,0,0-4,2.954,2.954,0,0,0,0-4A2.987,2.987,0,0,0,40,8H39V7a3,3,0,0,0-3-3H35V3a1,1,0,0,0-1-1H30a1,1,0,0,0-1,1V4H26a1,1,0,0,0-.707.293L21.586,8H3A1,1,0,0,0,2,9V22a1,1,0,0,0,1,1H21.667L25.4,25.8a1,1,0,0,0,.6.2h3v2H27v1.018a20.943,20.943,0,0,0-9.368,2.49A21.09,21.09,0,0,1,7,34H4.979A2.982,2.982,0,0,0,2,36.979a3.015,3.015,0,0,0,3.045,2.977c1.607,0,3.051-.059,4.369-.16l-4,7.2H2v1c0,2.389,3.589,6,9,6s9-3.611,9-6V47H16.588L12.4,39.466a32.014,32.014,0,0,0,9.1-2.762A15.915,15.915,0,0,1,27,35.04V38h2V56H22a1,1,0,0,0-1,1v4a1,1,0,0,0,1,1H42a1,1,0,0,0,1-1V57a1,1,0,0,0-1-1H35V38h2V35.04A15.915,15.915,0,0,1,42.5,36.7a32.014,32.014,0,0,0,9.1,2.762L47.412,47H44v1c0,2.389,3.589,6,9,6s9-3.611,9-6V47H58.588l-4-7.2c1.318.1,2.762.16,4.369.16A3.015,3.015,0,0,0,62,36.979ZM17.574,49A8.049,8.049,0,0,1,11,52a8.049,8.049,0,0,1-6.574-3ZM14.3,47H7.7L11,41.059ZM27,33.033a17.4,17.4,0,0,0-6.3,1.841c-3.112,1.373-6.984,3.082-15.653,3.082A1,1,0,0,1,4,36.979.98.98,0,0,1,4.979,36H7a23.054,23.054,0,0,0,11.493-2.687A19.016,19.016,0,0,1,27,31.018ZM35,6h1a1,1,0,0,1,1,1V8H35ZM31,4h2V8H31ZM26.333,24,22.6,21.2A1,1,0,0,0,22,21H4V10H22a1,1,0,0,0,.707-.293L26.414,6H29V8H27v2H40a1,1,0,0,1,0,2H29v2H40a1,1,0,0,1,0,2H29v2H40a1,1,0,0,1,0,2H29v2H40a1,1,0,0,1,0,2ZM33,26v2H31V26Zm8,32v2H23V58ZM31,56V38h2V56Zm4-20H29V30h6ZM59.574,49A8.049,8.049,0,0,1,53,52a8.049,8.049,0,0,1-6.574-3ZM56.3,47H49.7L53,41.059Zm-13-12.126A17.4,17.4,0,0,0,37,33.033V31.018a19.016,19.016,0,0,1,8.507,2.3A23.054,23.054,0,0,0,57,36h2.021a.98.98,0,0,1,.979.979,1,1,0,0,1-1.045.977C50.286,37.956,46.414,36.247,43.3,34.874Z"/></g></svg>
