<?xml version="1.0" encoding="UTF-8"?>
<svg xmlns="http://www.w3.org/2000/svg" width="512" height="512" viewBox="0 0 28 28"><g id="Layer_2" data-name="Layer 2"><path d="M13.074,21h-1.5V19.5a.5.5,0,0,0-.854-.354L9.574,20.293V19.5a.5.5,0,0,0-.309-.462.505.505,0,0,0-.545.108l-2,2a.5.5,0,1,0,.707.708l1.147-1.147V21.5a.5.5,0,0,0,.308.462A.513.513,0,0,0,9.074,22a.5.5,0,0,0,.353-.146l1.147-1.147V21.5a.5.5,0,0,0,.5.5h2a.5.5,0,0,0,0-1Z"/><path d="M7.074,11H13a.5.5,0,0,0,0-1H7.074a.5.5,0,1,0,0,1Z"/><path d="M7.074,14H13a.5.5,0,0,0,0-1H7.074a.5.5,0,1,0,0,1Z"/><path d="M11.074,8h5a.5.5,0,0,0,0-1h-5a.5.5,0,1,0,0,1Z"/><path d="M25.186,11.5,20.574,9.658V3.884A1.886,1.886,0,0,0,18.69,2H8.074a.5.5,0,0,0-.354.146l-5,5a.5.5,0,0,0-.146.354V24.116A1.886,1.886,0,0,0,4.458,26H18.69a1.886,1.886,0,0,0,1.884-1.884v-2.05l2.57-1.8A5.53,5.53,0,0,0,25.5,15.742V11.967A.5.5,0,0,0,25.186,11.5ZM7.574,3.707V7H4.281ZM18.69,25H4.458a.884.884,0,0,1-.884-.884V8h4.5a.5.5,0,0,0,.5-.5V3H18.69a.884.884,0,0,1,.884.884V9.665L14.981,11.5a.5.5,0,0,0-.314.464v3.775a5.534,5.534,0,0,0,2.355,4.526l2.552,1.786v2.062A.884.884,0,0,1,18.69,25Zm5.81-9.258a4.529,4.529,0,0,1-1.931,3.707l-2.486,1.74L17.6,19.449a4.53,4.53,0,0,1-1.93-3.707V12.306l4.416-1.768L24.5,12.306Z"/><path d="M18.354,14.979a.5.5,0,1,0-.708.708l1.333,1.334a.5.5,0,0,0,.708,0l2.667-2.667a.5.5,0,0,0-.708-.708L19.333,15.96Z"/></g></svg>
